<svg xmlns="http://www.w3.org/2000/svg" xmlns:xlink="http://www.w3.org/1999/xlink" version="1.1" width="612.95999pt" height="793.92pt" viewBox="0 0 612.95999 793.92">
<defs>
<clipPath id="clip_0">
<path transform="matrix(.24,0,0,.24,0,0)" d="M0 0H2554.1668V3307.5108H0Z" fill-rule="evenodd"/>
</clipPath>
<clipPath id="clip_1">
<path transform="matrix(.24,0,0,.24,0,0)" d="M0 0H2554.1668V3304.5093H0Z" fill-rule="evenodd"/>
</clipPath>
</defs>
<g clip-path="url(#clip_0)">
<path transform="matrix(.720329,0,0,.720329,0,0)" d="M0 0H851V1102H0Z" fill="#ffffff"/>
<path transform="matrix(.720329,0,0,.720329,0,0)" d="M0 0H851V1101H0Z" fill="#ffffff"/>
</g>
<g clip-path="url(#clip_1)">
<path transform="matrix(.720329,0,0,.720329,.3601645,.3601645)" d="M425 40H525V80H425Z" fill="#ffffff"/>
<path transform="matrix(.720329,0,0,.720329,.3601645,.3601645)" stroke-width="1" stroke-linecap="butt" stroke-miterlimit="4" stroke-linejoin="miter" fill="none" stroke="#000000" d="M425 40H525V80H425Z"/>
<path transform="matrix(.720329,0,0,.720329,.3601645,.3601645)" d="M475.5 80V83H474.5V80M475.5 86V89H474.5V86M475.5 92V95H474.5V92M475.5 98V101H474.5V98M475.5 104V107H474.5V104M475.5 110V113H474.5V110M475.5 116V119H474.5V116M475.5 122V125H474.5V122M475.5 128V131H474.5V128M475.5 134V137H474.5V134M475.5 140V143H474.5V140M475.5 146V149H474.5V146M475.5 152V155H474.5V152M475.5 158V161H474.5V158M475.5 164V167H474.5V164M475.5 170V173H474.5V170M475.5 176V179H474.5V176M475.5 182V185H474.5V182M475.5 188V191H474.5V188M475.5 194V197H474.5V194M475.5 200V203H474.5V200M475.5 206V209H474.5V206M475.5 212V215H474.5V212M475.5 218V221H474.5V218M475.5 224V227H474.5V224M475.5 230V233H474.5V230M475.5 236V239H474.5V236M475.5 242V245H474.5V242M475.5 248V251H474.5V248M475.5 254V257H474.5V254M475.5 260V263H474.5V260M475.5 266V269H474.5V266M475.5 272V275H474.5V272M475.5 278V281H474.5V278M475.5 284V287H474.5V284M475.5 290V293H474.5V290M475.5 296V299H474.5V296M475.5 302V305H474.5V302M475.5 308V311H474.5V308M475.5 314V317H474.5V314M475.5 320V323H474.5V320M475.5 326V329H474.5V326M475.5 332V335H474.5V332M475.5 338V341H474.5V338M475.5 344V347H474.5V344M475.5 350V353H474.5V350M475.5 356V359H474.5V356M475.5 362V365H474.5V362M475.5 368V371H474.5V368M475.5 374V377H474.5V374M475.5 380V383H474.5V380M475.5 386V389H474.5V386M475.5 392V395H474.5V392M475.5 398V401H474.5V398M475.5 404V407H474.5V404M475.5 410V413H474.5V410M475.5 416V419H474.5V416M475.5 422V425H474.5V422M475.5 428V431H474.5V428M475.5 434V437H474.5V434M475.5 440V443H474.5V440M475.5 446V449H474.5V446M475.5 452V455H474.5V452M475.5 458V461H474.5V458M475.5 464V467H474.5V464M475.5 470V473H474.5V470M475.5 476V479H474.5V476M475.5 482V485H474.5V482M475.5 488V491H474.5V488M475.5 494V497H474.5V494M475.5 500V503H474.5V500M475.5 506V509H474.5V506M475.5 512V515H474.5V512M475.5 518V521H474.5V518M475.5 524V527H474.5V524M475.5 530V533H474.5V530M475.5 536V539H474.5V536M475.5 542V545H474.5V542M475.5 548V551H474.5V548M475.5 554V557H474.5V554M475.5 560V563H474.5V560M475.5 566V569H474.5V566M475.5 572V575H474.5V572M475.5 578V581H474.5V578M475.5 584V587H474.5V584M475.5 590V593H474.5V590M475.5 596V599H474.5V596M475.5 602V605H474.5V602M475.5 608V611H474.5V608M475.5 614V617H474.5V614M475.5 620V623H474.5V620M475.5 626V629H474.5V626M475.5 632V635H474.5V632M475.5 638V640H474.5V638"/>
<text xml:space="preserve" transform="matrix(.720329 0 0 .720329 0 0)" font-size="12" font-family="ArialMT"><tspan y="64" x="447.98439 451.32038 459.32438 465.99638 468.66038 471.32438 477.32438 483.99638 489.99638 492.66038 495.32438">:Aplikacija</tspan></text>
<path transform="matrix(.720329,0,0,.720329,.3601645,.3601645)" d="M470 80H480V640H470Z" fill="#ffffff"/>
<path transform="matrix(.720329,0,0,.720329,.3601645,.3601645)" stroke-width="1" stroke-linecap="butt" stroke-miterlimit="4" stroke-linejoin="miter" fill="none" stroke="#000000" d="M470 80H480V640H470Z"/>
<path transform="matrix(.720329,0,0,.720329,.3601645,.3601645)" d="M72.5 47.5C72.5 47.992456 72.45196 48.48018 72.35588 48.963174 72.2598 49.446168 72.117549 49.91515 71.92909 50.37012 71.74064 50.82509 71.50962 51.257307 71.23602 51.66677 70.962429 52.076234 70.65152 52.455076 70.3033 52.803297 69.95507 53.151514 69.576229 53.46242 69.16676 53.736017 68.7573 54.00961 68.32509 54.24063 67.87012 54.42909 67.415149 54.617544 66.94617 54.759809 66.46317 54.855886 65.98018 54.951959 65.492458 54.999998 65 55 64.50754 54.999998 64.019809 54.951959 63.536817 54.855886 63.053819 54.759809 62.584836 54.617544 62.129865 54.42909 61.674898 54.24063 61.24268 54.00961 60.833219 53.736017 60.42375 53.46242 60.04491 53.151514 59.696695 52.803297 59.34847 52.455076 59.03756 52.076234 58.763967 51.666769 58.49037 51.257307 58.25935 50.82509 58.070898 50.37012 57.882444 49.91515 57.740179 49.446168 57.644105 48.963174 57.54803 48.48018 57.499998 47.992456 57.5 47.5 57.499998 47.00754 57.54803 46.519815 57.644105 46.036817 57.740179 45.553819 57.882444 45.084836 58.070898 44.629869 58.25935 44.174898 58.49037 43.74268 58.763967 43.333219 59.03756 42.923757 59.34847 42.544916 59.696695 42.196699 60.04491 41.848478 60.42375 41.53757 60.833215 41.263978 61.24268 40.990385 61.674898 40.759359 62.129869 40.5709 62.584836 40.382444 63.053819 40.24018 63.536817 40.144109 64.019809 40.048036 64.50754 40 65 40 65.492458 40 65.98018 40.048036 66.46317 40.144109 66.94617 40.24018 67.415149 40.382444 67.87012 40.5709 68.32509 40.759359 68.7573 40.990385 69.16676 41.263978 69.576229 41.53757 69.95507 41.848478 70.3033 42.196699 70.65152 42.544916 70.962429 42.923757 71.23602 43.333219 71.50962 43.74268 71.74064 44.174898 71.92909 44.629869 72.117549 45.084836 72.2598 45.553819 72.35588 46.036817 72.45196 46.519815 72.5 47.00754 72.5 47.5Z" fill="#ffffff"/>
<path transform="matrix(.720329,0,0,.720329,.3601645,.3601645)" stroke-width="1" stroke-linecap="butt" stroke-miterlimit="4" stroke-linejoin="miter" fill="none" stroke="#000000" d="M72.5 47.5C72.5 47.992456 72.45196 48.48018 72.35588 48.963174 72.2598 49.446168 72.117549 49.91515 71.92909 50.37012 71.74064 50.82509 71.50962 51.257307 71.23602 51.66677 70.962429 52.076234 70.65152 52.455076 70.3033 52.803297 69.95507 53.151514 69.576229 53.46242 69.16676 53.736017 68.7573 54.00961 68.32509 54.24063 67.87012 54.42909 67.415149 54.617544 66.94617 54.759809 66.46317 54.855886 65.98018 54.951959 65.492458 54.999998 65 55 64.50754 54.999998 64.019809 54.951959 63.536817 54.855886 63.053819 54.759809 62.584836 54.617544 62.129865 54.42909 61.674898 54.24063 61.24268 54.00961 60.833219 53.736017 60.42375 53.46242 60.04491 53.151514 59.696695 52.803297 59.34847 52.455076 59.03756 52.076234 58.763967 51.666769 58.49037 51.257307 58.25935 50.82509 58.070898 50.37012 57.882444 49.91515 57.740179 49.446168 57.644105 48.963174 57.54803 48.48018 57.499998 47.992456 57.5 47.5 57.499998 47.00754 57.54803 46.519815 57.644105 46.036817 57.740179 45.553819 57.882444 45.084836 58.070898 44.629869 58.25935 44.174898 58.49037 43.74268 58.763967 43.333219 59.03756 42.923757 59.34847 42.544916 59.696695 42.196699 60.04491 41.848478 60.42375 41.53757 60.833215 41.263978 61.24268 40.990385 61.674898 40.759359 62.129869 40.5709 62.584836 40.382444 63.053819 40.24018 63.536817 40.144109 64.019809 40.048036 64.50754 40 65 40 65.492458 40 65.98018 40.048036 66.46317 40.144109 66.94617 40.24018 67.415149 40.382444 67.87012 40.5709 68.32509 40.759359 68.7573 40.990385 69.16676 41.263978 69.576229 41.53757 69.95507 41.848478 70.3033 42.196699 70.65152 42.544916 70.962429 42.923757 71.23602 43.333219 71.50962 43.74268 71.74064 44.174898 71.92909 44.629869 72.117549 45.084836 72.2598 45.553819 72.35588 46.036817 72.45196 46.519815 72.5 47.00754 72.5 47.5Z"/>
<path transform="matrix(.720329,0,0,.720329,.3601645,.3601645)" stroke-width="1" stroke-linecap="butt" stroke-miterlimit="10" stroke-linejoin="miter" fill="none" stroke="#000000" d="M65 55V80M65 60H50M65 60H80M65 80 50 100M65 80 80 100"/>
<text xml:space="preserve" transform="matrix(.720329 0 0 .720329 0 0)" font-size="12" font-family="ArialMT"><tspan y="118" x="52.15625 55.49225 62.16425 66.16025 72.832248">Igra&#x010d;</tspan></text>
<path transform="matrix(0,.720329,-.720329,0,322.03749,228.3803)" d="M-189.05 376.56H319.07V386.56H-189.05Z" fill="#ffffff"/>
<path transform="matrix(0,.720329,-.720329,0,322.03749,228.3803)" stroke-width="1" stroke-linecap="butt" stroke-miterlimit="4" stroke-linejoin="miter" fill="none" stroke="#000000" d="M-189.05 376.56H319.07V386.56H-189.05Z"/>
<path transform="matrix(.720329,0,0,.720329,.3601645,.3601645)" d="M200 40H300V80H200Z" fill="#ffffff"/>
<path transform="matrix(.720329,0,0,.720329,.3601645,.3601645)" stroke-width="1" stroke-linecap="butt" stroke-miterlimit="4" stroke-linejoin="miter" fill="none" stroke="#000000" d="M200 40H300V80H200Z"/>
<path transform="matrix(.720329,0,0,.720329,.3601645,.3601645)" d="M250.5 80V83H249.5V80M250.5 86V89H249.5V86M250.5 92V95H249.5V92M250.5 98V101H249.5V98M250.5 104V107H249.5V104M250.5 110V113H249.5V110M250.5 116V119H249.5V116M250.5 122V125H249.5V122M250.5 128V131H249.5V128M250.5 134V137H249.5V134M250.5 140V143H249.5V140M250.5 146V149H249.5V146M250.5 152V155H249.5V152M250.5 158V161H249.5V158M250.5 164V167H249.5V164M250.5 170V173H249.5V170M250.5 176V179H249.5V176M250.5 182V185H249.5V182M250.5 188V191H249.5V188M250.5 194V197H249.5V194M250.5 200V203H249.5V200M250.5 206V209H249.5V206M250.5 212V215H249.5V212M250.5 218V221H249.5V218M250.5 224V227H249.5V224M250.5 230V233H249.5V230M250.5 236V239H249.5V236M250.5 242V245H249.5V242M250.5 248V251H249.5V248M250.5 254V257H249.5V254M250.5 260V263H249.5V260M250.5 266V269H249.5V266M250.5 272V275H249.5V272M250.5 278V281H249.5V278M250.5 284V287H249.5V284M250.5 290V293H249.5V290M250.5 296V299H249.5V296M250.5 302V305H249.5V302M250.5 308V311H249.5V308M250.5 314V317H249.5V314M250.5 320V323H249.5V320M250.5 326V329H249.5V326M250.5 332V335H249.5V332M250.5 338V341H249.5V338M250.5 344V347H249.5V344M250.5 350V353H249.5V350M250.5 356V359H249.5V356M250.5 362V365H249.5V362M250.5 368V371H249.5V368M250.5 374V377H249.5V374M250.5 380V383H249.5V380M250.5 386V389H249.5V386M250.5 392V395H249.5V392M250.5 398V401H249.5V398M250.5 404V407H249.5V404M250.5 410V413H249.5V410M250.5 416V419H249.5V416M250.5 422V425H249.5V422M250.5 428V431H249.5V428M250.5 434V437H249.5V434M250.5 440V443H249.5V440M250.5 446V449H249.5V446M250.5 452V455H249.5V452M250.5 458V461H249.5V458M250.5 464V467H249.5V464M250.5 470V473H249.5V470M250.5 476V479H249.5V476M250.5 482V485H249.5V482M250.5 488V491H249.5V488M250.5 494V497H249.5V494M250.5 500V503H249.5V500M250.5 506V509H249.5V506M250.5 512V515H249.5V512M250.5 518V521H249.5V518M250.5 524V527H249.5V524M250.5 530V533H249.5V530M250.5 536V539H249.5V536M250.5 542V545H249.5V542M250.5 548V551H249.5V548M250.5 554V557H249.5V554M250.5 560V563H249.5V560M250.5 566V569H249.5V566M250.5 572V575H249.5V572M250.5 578V581H249.5V578M250.5 584V587H249.5V584M250.5 590V593H249.5V590M250.5 596V599H249.5V596M250.5 602V605H249.5V602M250.5 608V611H249.5V608M250.5 614V617H249.5V614M250.5 620V623H249.5V620M250.5 626V629H249.5V626M250.5 632V635H249.5V632M250.5 638V640H249.5V638"/>
<text xml:space="preserve" transform="matrix(.720329 0 0 .720329 0 0)" font-size="12" font-family="ArialMT"><tspan y="64" x="216.64063 219.97663 229.31262 231.97663 238.64862 244.64862 251.32062 253.98462 257.32063 267.31663 273.98863 280.6606">:Glavni meni</tspan></text>
<path transform="matrix(.720329,0,0,.720329,.3601645,.3601645)" d="M245 440H255V520H245Z" fill="#ffffff"/>
<path transform="matrix(.720329,0,0,.720329,.3601645,.3601645)" stroke-width="1" stroke-linecap="butt" stroke-miterlimit="4" stroke-linejoin="miter" fill="none" stroke="#000000" d="M245 440H255V520H245Z"/>
<path transform="matrix(.720329,0,0,.720329,.3601645,.3601645)" d="M245 130H255V210H245Z" fill="#ffffff"/>
<path transform="matrix(.720329,0,0,.720329,.3601645,.3601645)" stroke-width="1" stroke-linecap="butt" stroke-miterlimit="4" stroke-linejoin="miter" fill="none" stroke="#000000" d="M245 130H255V210H245Z"/>
<path transform="matrix(.720329,0,0,.720329,.3601645,.3601645)" d="M640 40H740V80H640Z" fill="#ffffff"/>
<path transform="matrix(.720329,0,0,.720329,.3601645,.3601645)" stroke-width="1" stroke-linecap="butt" stroke-miterlimit="4" stroke-linejoin="miter" fill="none" stroke="#000000" d="M640 40H740V80H640Z"/>
<path transform="matrix(.720329,0,0,.720329,.3601645,.3601645)" d="M690.5 80V83H689.5V80M690.5 86V89H689.5V86M690.5 92V95H689.5V92M690.5 98V101H689.5V98M690.5 104V107H689.5V104M690.5 110V113H689.5V110M690.5 116V119H689.5V116M690.5 122V125H689.5V122M690.5 128V131H689.5V128M690.5 134V137H689.5V134M690.5 140V143H689.5V140M690.5 146V149H689.5V146M690.5 152V155H689.5V152M690.5 158V161H689.5V158M690.5 164V167H689.5V164M690.5 170V173H689.5V170M690.5 176V179H689.5V176M690.5 182V185H689.5V182M690.5 188V191H689.5V188M690.5 194V197H689.5V194M690.5 200V203H689.5V200M690.5 206V209H689.5V206M690.5 212V215H689.5V212M690.5 218V221H689.5V218M690.5 224V227H689.5V224M690.5 230V233H689.5V230M690.5 236V239H689.5V236M690.5 242V245H689.5V242M690.5 248V251H689.5V248M690.5 254V257H689.5V254M690.5 260V263H689.5V260M690.5 266V269H689.5V266M690.5 272V275H689.5V272M690.5 278V281H689.5V278M690.5 284V287H689.5V284M690.5 290V293H689.5V290M690.5 296V299H689.5V296M690.5 302V305H689.5V302M690.5 308V311H689.5V308M690.5 314V317H689.5V314M690.5 320V323H689.5V320M690.5 326V329H689.5V326M690.5 332V335H689.5V332M690.5 338V341H689.5V338M690.5 344V347H689.5V344M690.5 350V353H689.5V350M690.5 356V359H689.5V356M690.5 362V365H689.5V362M690.5 368V371H689.5V368M690.5 374V377H689.5V374M690.5 380V383H689.5V380M690.5 386V389H689.5V386M690.5 392V395H689.5V392M690.5 398V401H689.5V398M690.5 404V407H689.5V404M690.5 410V413H689.5V410M690.5 416V419H689.5V416M690.5 422V425H689.5V422M690.5 428V431H689.5V428M690.5 434V437H689.5V434M690.5 440V443H689.5V440M690.5 446V449H689.5V446M690.5 452V455H689.5V452M690.5 458V461H689.5V458M690.5 464V467H689.5V464M690.5 470V473H689.5V470M690.5 476V479H689.5V476M690.5 482V485H689.5V482M690.5 488V491H689.5V488M690.5 494V497H689.5V494M690.5 500V503H689.5V500M690.5 506V509H689.5V506M690.5 512V515H689.5V512M690.5 518V521H689.5V518M690.5 524V527H689.5V524M690.5 530V533H689.5V530M690.5 536V539H689.5V536M690.5 542V545H689.5V542M690.5 548V551H689.5V548M690.5 554V557H689.5V554M690.5 560V563H689.5V560M690.5 566V569H689.5V566M690.5 572V575H689.5V572M690.5 578V581H689.5V578M690.5 584V587H689.5V584M690.5 590V593H689.5V590M690.5 596V599H689.5V596M690.5 602V605H689.5V602M690.5 608V611H689.5V608M690.5 614V617H689.5V614M690.5 620V623H689.5V620M690.5 626V629H689.5V626M690.5 632V635H689.5V632M690.5 638V640H689.5V638"/>
<text xml:space="preserve" transform="matrix(.720329 0 0 .720329 0 0)" font-size="12" font-family="ArialMT"><tspan y="64" x="646.96878 650.30477 658.3088 662.30477 664.96878 670.96878 677.64077 683.64077 686.97677 690.9727 697.6447 703.6447 710.3167 712.9807 716.3167 722.9887 726.3247">:Prikaz rezultata</tspan></text>
<path transform="matrix(.720329,0,0,.720329,.3601645,.3601645)" d="M685 170H695V410H685Z" fill="#ffffff"/>
<path transform="matrix(.720329,0,0,.720329,.3601645,.3601645)" stroke-width="1" stroke-linecap="butt" stroke-miterlimit="4" stroke-linejoin="miter" fill="none" stroke="#000000" d="M685 170H695V410H685Z"/>
<path transform="matrix(.720329,0,0,.720329,.3601645,.3601645)" stroke-width="1" stroke-linecap="butt" stroke-miterlimit="10" stroke-linejoin="miter" fill="none" stroke="#000000" d="M70 130H155 241.38"/>
<path transform="matrix(.720329,0,0,.720329,.3601645,.3601645)" d="M248.38 130 241.38 133.5V126.5L248.38 130Z"/>
<path transform="matrix(.720329,0,0,.720329,.3601645,.3601645)" stroke-width="1" stroke-linecap="butt" stroke-miterlimit="10" stroke-linejoin="miter" fill="none" stroke="#000000" d="M248.38 130 241.38 133.5V126.5L248.38 130Z"/>
<path transform="matrix(.720329,0,0,.720329,0,0)" d="M115 115H206V128H115Z" fill="#ffffff"/>
<text xml:space="preserve" transform="matrix(.720329 0 0 .720329 0 0)" font-size="11" font-family="ArialMT"><tspan y="125" x="115.265628 121.38162 124.43962 127.49762 134.83463 138.49762 140.93962 146.43962 152.55562 158.05562 160.49762 163.55562 167.21862 173.33461 178.83461 184.9506 187.39261 190.4506 196.5666 199.6246">1. Prika&#x017e;i rezultate</tspan></text>
<path transform="matrix(.720329,0,0,.720329,.3601645,.3601645)" d="M685 290.5H682V289.5H685M679 290.5H676V289.5H679M673 290.5H670V289.5H673M667 290.5H664V289.5H667M661 290.5H658V289.5H661M655 290.5H652V289.5H655M649 290.5H646V289.5H649M643 290.5H640V289.5H643M637 290.5H634V289.5H637M631 290.5H628V289.5H631M625 290.5H622V289.5H625M619 290.5H616V289.5H619M613 290.5H610V289.5H613M607 290.5H604V289.5H607M601 290.5H598V289.5H601M595 290.5H592V289.5H595M589 290.5H586V289.5H589M583 290.5H580V289.5H583M577 290.5H574V289.5H577M571 290.5H568V289.5H571M565 290.5H562V289.5H565M559 290.5H556V289.5H559M553 290.5H550V289.5H553M547 290.5H544V289.5H547M541 290.5H538V289.5H541M535 290.5H532V289.5H535M529 290.5H526V289.5H529M523 290.5H520V289.5H523M517 290.5H514V289.5H517M511 290.5H508V289.5H511M505 290.5H502V289.5H505M499 290.5H496V289.5H499M493 290.5H490V289.5H493M487 290.5H484V289.5H487M481 290.5H478V289.5H481M475 290.5H472V289.5H475M469 290.5H466V289.5H469M463 290.5H460V289.5H463M457 290.5H454V289.5H457M451 290.5H448V289.5H451M445 290.5H442V289.5H445M439 290.5H436V289.5H439M433 290.5H430V289.5H433M427 290.5H424V289.5H427M421 290.5H418V289.5H421M415 290.5H412V289.5H415M409 290.5H406V289.5H409M403 290.5H400V289.5H403M397 290.5H394V289.5H397M391 290.5H388V289.5H391M385 290.5H382V289.5H385M379 290.5H376V289.5H379M373 290.5H370V289.5H373M367 290.5H364V289.5H367M361 290.5H358V289.5H361M355 290.5H352V289.5H355M349 290.5H346V289.5H349M343 290.5H340V289.5H343M337 290.5H334V289.5H337M331 290.5H328V289.5H331M325 290.5H322V289.5H325M319 290.5H316V289.5H319M313 290.5H310V289.5H313M307 290.5H304V289.5H307M301 290.5H298V289.5H301M295 290.5H292V289.5H295M289 290.5H286V289.5H289M283 290.5H280V289.5H283M277 290.5H274V289.5H277M271 290.5H268V289.5H271M265 290.5H262V289.5H265M259 290.5H256V289.5H259M253 290.5H250V289.5H253M247 290.5H244V289.5H247M241 290.5H238V289.5H241M235 290.5H232V289.5H235M229 290.5H226V289.5H229M223 290.5H220V289.5H223M217 290.5H214V289.5H217M211 290.5H208V289.5H211M205 290.5H202V289.5H205M199 290.5H196V289.5H199M193 290.5H190V289.5H193M187 290.5H184V289.5H187M181 290.5H178V289.5H181M175 290.5H172V289.5H175M169 290.5H166V289.5H169M163 290.5H160V289.5H163M157 290.5H154V289.5H157M151 290.5H148V289.5H151M145 290.5H142V289.5H145M139 290.5H136V289.5H139M133 290.5H130V289.5H133M127 290.5H124V289.5H127M121 290.5H118V289.5H121M115 290.5H112V289.5H115M109 290.5H106V289.5H109M103 290.5H100V289.5H103M97 290.5H94V289.5H97M91 290.5H88V289.5H91M85 290.5H82V289.5H85M79 290.5H76V289.5H79M73 290.5H72.23999V289.5H73"/>
<path transform="matrix(.720329,0,0,.720329,.3601645,.3601645)" stroke-width="1" stroke-linecap="butt" stroke-miterlimit="10" stroke-linejoin="miter" fill="none" stroke="#000000" d="M80.12 285.5 71.12 290 80.12 294.5"/>
<path transform="matrix(.720329,0,0,.720329,0,0)" d="M319 275H436V288H319Z" fill="#ffffff"/>
<text xml:space="preserve" transform="matrix(.720329 0 0 .720329 0 0)" font-size="11" font-family="ArialMT"><tspan y="285" x="319.10939 325.22538 328.2834 331.3414 338.6784 342.3414 344.7834 350.2834 356.39939 361.89939 364.34138 369.84138 375.95738 382.07337 384.51536 390.63136 393.68937 397.35237 403.46836 408.96836 415.08436 417.52635 420.58436 426.70036 429.75837">4. Prikazivanje rezultata</tspan></text>
<path transform="matrix(.720329,0,0,.720329,.3601645,.3601645)" stroke-width="1" stroke-linecap="butt" stroke-miterlimit="10" stroke-linejoin="miter" fill="none" stroke="#000000" d="M70 360.02 681.38 360"/>
<path transform="matrix(.720329,0,0,.720329,.3601645,.3601645)" d="M688.38 360 681.38 363.5V356.5L688.38 360Z"/>
<path transform="matrix(.720329,0,0,.720329,.3601645,.3601645)" stroke-width="1" stroke-linecap="butt" stroke-miterlimit="10" stroke-linejoin="miter" fill="none" stroke="#000000" d="M688.38 360 681.38 363.5V356.5L688.38 360Z"/>
<path transform="matrix(.720329,0,0,.720329,0,0)" d="M296 345H466V358H296Z" fill="#ffffff"/>
<text xml:space="preserve" transform="matrix(.720329 0 0 .720329 0 0)" font-size="11" font-family="ArialMT"><tspan y="355" x="295.5 301.616 304.674 307.73204 310.79005 316.90605 320.56904 326.68504 332.18504 335.24305 341.35905 343.80104 347.46403 353.58003 356.63804 362.75404 368.87004 374.98603 384.14903 390.265 393.32304 399.43904 405.55503 411.05503 417.17103 423.28703 426.34504 432.46104 438.57704 441.63505 450.79804 456.91404 463.03004">5. Igra&#x010d; bira dugme nazad na meni</tspan></text>
<path transform="matrix(.720329,0,0,.720329,.3601645,.3601645)" stroke-width="1" stroke-linecap="butt" stroke-miterlimit="10" stroke-linejoin="miter" fill="none" stroke="#000000" d="M470 440.08 257.62 440"/>
<path transform="matrix(.720329,0,0,.720329,.3601645,.3601645)" d="M250.62 440 257.62 436.5V443.5L250.62 440Z"/>
<path transform="matrix(.720329,0,0,.720329,.3601645,.3601645)" stroke-width="1" stroke-linecap="butt" stroke-miterlimit="10" stroke-linejoin="miter" fill="none" stroke="#000000" d="M250.62 440 257.62 436.5V443.5L250.62 440Z"/>
<path transform="matrix(.720329,0,0,.720329,0,0)" d="M312 425H409V438H312Z" fill="#ffffff"/>
<text xml:space="preserve" transform="matrix(.720329 0 0 .720329 0 0)" font-size="11" font-family="ArialMT"><tspan y="435" x="311.57814 317.69413 320.75215 323.81016 331.14717 337.26316 342.76316 346.42616 352.54216 355.60017 361.71617 367.21617 370.27418 376.39018 382.50617 385.56419 394.72718 400.84318 406.95918">7. Povratak na meni</tspan></text>
<path transform="matrix(.720329,0,0,.720329,.3601645,.3601645)" stroke-width="1" stroke-linecap="butt" stroke-miterlimit="10" stroke-linejoin="miter" fill="none" stroke="#000000" d="M255 160H335 461.88"/>
<path transform="matrix(.720329,0,0,.720329,.3601645,.3601645)" d="M468.88 160 461.88 163.5V156.5L468.88 160Z"/>
<path transform="matrix(.720329,0,0,.720329,.3601645,.3601645)" stroke-width="1" stroke-linecap="butt" stroke-miterlimit="10" stroke-linejoin="miter" fill="none" stroke="#000000" d="M468.88 160 461.88 163.5V156.5L468.88 160Z"/>
<path transform="matrix(.720329,0,0,.720329,0,0)" d="M302 145H425V158H302Z" fill="#ffffff"/>
<text xml:space="preserve" transform="matrix(.720329 0 0 .720329 0 0)" font-size="11" font-family="ArialMT"><tspan y="155" x="301.75 307.866 310.924 313.98204 321.31904 324.98204 327.424 332.924 339.04 344.54 346.982 350.04 353.09803 359.21403 365.33003 371.446 373.888 380.004 383.062 386.725 392.841 398.341 404.457 406.899 409.957 416.073 419.131">2. Prika&#x017e;i tabelu rezultata</tspan></text>
<path transform="matrix(.720329,0,0,.720329,.3601645,.3601645)" stroke-width="1" stroke-linecap="butt" stroke-miterlimit="10" stroke-linejoin="miter" fill="none" stroke="#000000" d="M480 170H565 676.88"/>
<path transform="matrix(.720329,0,0,.720329,.3601645,.3601645)" d="M683.88 170 676.88 173.5V166.5L683.88 170Z"/>
<path transform="matrix(.720329,0,0,.720329,.3601645,.3601645)" stroke-width="1" stroke-linecap="butt" stroke-miterlimit="10" stroke-linejoin="miter" fill="none" stroke="#000000" d="M683.88 170 676.88 173.5V166.5L683.88 170Z"/>
<path transform="matrix(.720329,0,0,.720329,0,0)" d="M512 155H655V168H512Z" fill="#ffffff"/>
<text xml:space="preserve" transform="matrix(.720329 0 0 .720329 0 0)" font-size="11" font-family="ArialMT"><tspan y="165" x="511.67189 517.7879 520.8459 523.9039 532.46188 535.51986 541.01986 547.13589 550.7989 553.2409 556.2989 562.4149 568.53097 574.03097 580.147 583.81 586.868 592.368 598.484 601.542 605.205 611.32107 616.82107 622.9371 625.3791 628.4371 634.5531 637.6111 640.0531 649.2161">3. Otvori pozor sa rezultatima</tspan></text>
<path transform="matrix(.720329,0,0,.720329,.3601645,.3601645)" stroke-width="1" stroke-linecap="butt" stroke-miterlimit="10" stroke-linejoin="miter" fill="none" stroke="#000000" d="M690 410H610 488.12"/>
<path transform="matrix(.720329,0,0,.720329,.3601645,.3601645)" d="M481.12 410 488.12 406.5V413.5L481.12 410Z"/>
<path transform="matrix(.720329,0,0,.720329,.3601645,.3601645)" stroke-width="1" stroke-linecap="butt" stroke-miterlimit="10" stroke-linejoin="miter" fill="none" stroke="#000000" d="M481.12 410 488.12 406.5V413.5L481.12 410Z"/>
<path transform="matrix(.720329,0,0,.720329,0,0)" d="M535 395H636V408H535Z" fill="#ffffff"/>
<text xml:space="preserve" transform="matrix(.720329 0 0 .720329 0 0)" font-size="11" font-family="ArialMT"><tspan y="405" x="534.75 540.866 543.924 550.645 556.76107 559.81906 565.31906 571.43508 575.0981 581.2141 587.33016 589.77218 595.8882 598.94619 605.0622 608.7252 614.84127 620.34127 626.4573 630.1203">6.Zatvaranje prozora</tspan></text>
<path transform="matrix(.720329,0,0,.720329,.3601645,.3601645)" stroke-width="1" stroke-linecap="butt" stroke-miterlimit="10" stroke-linejoin="miter" fill="none" stroke="#000000" d="M250 520H170 78.12"/>
<path transform="matrix(.720329,0,0,.720329,.3601645,.3601645)" d="M71.12 520 78.12 516.5V523.5L71.12 520Z"/>
<path transform="matrix(.720329,0,0,.720329,.3601645,.3601645)" stroke-width="1" stroke-linecap="butt" stroke-miterlimit="10" stroke-linejoin="miter" fill="none" stroke="#000000" d="M71.12 520 78.12 516.5V523.5L71.12 520Z"/>
<path transform="matrix(.720329,0,0,.720329,0,0)" d="M101 505H220V518H101Z" fill="#ffffff"/>
<text xml:space="preserve" transform="matrix(.720329 0 0 .720329 0 0)" font-size="11" font-family="ArialMT"><tspan y="515" x="100.578128 106.69412 109.75212 112.81012 120.14712 123.81012 126.25212 131.75212 137.86812 143.36812 146.42612 152.54212 154.98412 161.10012 166.60012 172.71611 178.8321 184.9481 188.0061 197.1691 203.2851 209.4011 211.8431 214.2851">8. Prikaz glavnog menija</tspan></text>
</g>
</svg>
